:SAMPLES-PER-SECOND 30
:FULLY-SPECIFIED
:DEGREES
409
root  -14.7313 36.4614 24.0042 -18.8541 19.8528 1.7949
RightUpLeg  -9.80219 -16.6499 -3.44394
RightLeg  46.9625 -6.77816 -8.03054
RightFoot  -10.6747 -0.0603077 3.93698
RightToes  -5.82094e-011 -1.98785e-016 -5.10186e-018
Spine  25.8138 -0.111791 -6.80174
Spine1  4.13772 -3.39367 6.10338
HEad  -8.68652 3.41735 -6.44797
LeftShoulder1  2.26773 -4.97947 -20.3085
LeftArm  -8.31858 -15.5099 -52.1707
LeftForeArm  -143.864 -69.1065 -159.441
LeftHand  -1.15553 -1.85061 18.6189
RightShoulder  3.9903 7.63901 29.8881
RightArm  -8.61356 -38.0693 40.4405
RightForeArm  37.5429 60.8676 16.7198
RightHand  -1.68403 8.17749 -14.6998
LeftUpLeg  -17.3275 6.93298 13.8219
LeftLeg  42.4103 2.43129 2.74826
LeftFoot  18.2167 1.7085 -6.87494
LeftToes  -8.4584e-011 5.90861e-011 8.40072e-012
410
root  -15.596 37.6797 22.6559 -15.8512 18.4512 1.14594
RightUpLeg  -9.67791 -20.104 -1.23204
RightLeg  34.4983 -3.1514 -2.88773
RightFoot  -5.06893 -0.272786 3.1276
RightToes  -5.82094e-011 -1.98785e-016 -5.10186e-018
Spine  24.3816 -0.229345 -7.53743
Spine1  3.65599 -4.0728 8.29692
HEad  -6.90779 4.82459 -7.30503
LeftShoulder1  2.2825 -4.75091 -21.2784
LeftArm  -6.91296 -11.9537 -51.8939
LeftForeArm  -144.837 -68.0558 -160.468
LeftHand  -0.958998 -0.189941 20.0132
RightShoulder  3.94989 7.71968 29.2557
RightArm  -5.98345 -39.6807 41.6042
RightForeArm  39.1494 58.3305 14.763
RightHand  -1.30958 8.88674 -10.9785
LeftUpLeg  -17.5669 8.39578 12.2701
LeftLeg  47.3236 0.835452 1.40993
LeftFoot  16.7154 0.909243 -4.06973
LeftToes  -8.4584e-011 5.90861e-011 8.40072e-012
411
root  -16.391 38.5975 21.3062 -13.24 16.8944 0.404679
RightUpLeg  -8.99133 -23.0808 -0.284108
RightLeg  25.1931 7.08022 3.65889
RightFoot  -4.59393 -0.891932 15.8401
RightToes  -5.82094e-011 -1.98785e-016 -5.10186e-018
Spine  22.8515 -0.219053 -7.59447
Spine1  3.09773 -4.23812 9.92316
HEad  -4.89661 6.0736 -7.84686
LeftShoulder1  2.50736 -5.26821 -22.266
LeftArm  -5.80754 -8.07442 -52.0858
LeftForeArm  -145.983 -68.1127 -160.318
LeftHand  -0.738909 1.37828 21.2024
RightShoulder  3.949 7.76639 29.0979
RightArm  -4.09762 -38.8093 41.9773
RightForeArm  35.9979 53.7456 12.3542
RightHand  -0.96518 9.10709 -8.09505
LeftUpLeg  -17.9702 8.42921 10.6785
LeftLeg  52.305 -0.242176 0.152779
LeftFoot  16.7732 1.17026 -5.07171
LeftToes  -8.4584e-011 5.90861e-011 8.40072e-012
412
root  -17.1501 38.954 19.9386 -11.516 14.2728 0.472596
RightUpLeg  -9.51929 -19.4432 -1.3117
RightLeg  26.7936 8.34365 4.13977
RightFoot  -10.0331 -0.361902 20.7127
RightToes  -5.82094e-011 -1.98785e-016 -5.10186e-018
Spine  21.6401 -0.198417 -6.12594
Spine1  2.7142 -3.36921 8.82214
HEad  -3.11293 6.48514 -8.00394
LeftShoulder1  2.76864 -5.83497 -23.4104
LeftArm  -5.22881 -5.50077 -51.4328
LeftForeArm  -146.582 -68.4609 -159.91
LeftHand  -0.601954 2.09499 21.2064
RightShoulder  3.96097 7.78875 29.135
RightArm  -2.30857 -36.92 41.7929
RightForeArm  27.5653 49.0522 10.8441
RightHand  -0.970794 8.22564 -8.61801
LeftUpLeg  -17.814 9.40395 8.92687
LeftLeg  57.9271 -1.10987 -1.38549
LeftFoot  18.287 1.71595 -6.91523
LeftToes  -8.4584e-011 5.90861e-011 8.40072e-012
413
root  -17.9256 38.8729 18.554 -11.1326 12.4746 0.287959
RightUpLeg  -8.94884 -11.8936 -3.64688
RightLeg  34.8217 -7.17612 -5.83145
RightFoot  -12.1852 0.0361103 14.232
RightToes  -5.82094e-011 -1.98785e-016 -5.10186e-018
Spine  20.5469 -0.801863 -4.20171
Spine1  3.17163 -2.90726 6.81705
HEad  -1.19381 7.44894 -8.29062
LeftShoulder1  2.79053 -5.70814 -24.0855
LeftArm  -4.4317 -3.45221 -51.5671
LeftForeArm  -148.267 -69.4612 -158.707
LeftHand  -0.428779 3.23548 22.6709
RightShoulder  4.00036 7.90103 29.1339
RightArm  -0.494301 -34.1364 41.2607
RightForeArm  23.0422 44.8365 9.53098
RightHand  -1.15469 8.38727 -10.0523
LeftUpLeg  -17.0866 9.80673 7.64221
LeftLeg  63.456 -2.13273 -4.01823
LeftFoot  18.7514 1.9934 -7.84234
LeftToes  -8.4584e-011 5.90861e-011 8.40072e-012
414
root  -18.7393 38.332 17.1512 -11.5188 12.9515 -0.359949
RightUpLeg  -6.39115 -8.62151 -6.42879
RightLeg  44.8955 -16.3015 -16.6824
RightFoot  -9.40185 -0.26264 10.9147
RightToes  -5.82094e-011 -1.98785e-016 -5.10186e-018
Spine  20.3168 -1.58691 -3.60027
Spine1  3.02052 -3.5432 7.6198
HEad  1.04271 8.20778 -8.78949
LeftShoulder1  2.85236 -5.62865 -25.0611
LeftArm  -4.64409 -1.03388 -52.4338
LeftForeArm  -147.315 -70.0423 -158.111
LeftHand  -0.518169 2.45369 20.3325
RightShoulder  3.8522 7.61881 28.6829
RightArm  1.95415 -30.9479 40.1756
RightForeArm  21.1952 40.9102 8.32732
RightHand  -1.40155 8.48397 -12.0451
LeftUpLeg  -16.5937 8.49116 6.78399
LeftLeg  69.0818 -2.25284 -5.62053
LeftFoot  18.5008 1.89155 -7.52295
LeftToes  -8.4584e-011 5.90861e-011 8.40072e-012
415
root  -19.545 37.4387 15.8162 -11.4429 14.8443 -1.87297
RightUpLeg  -2.2531 -7.96957 -8.29305
RightLeg  46.6663 -13.511 -15.4437
RightFoot  -7.38203 -0.269295 12.6463
RightToes  -5.82094e-011 -1.98785e-016 -5.10186e-018
Spine  19.4168 -2.48188 -3.37513
Spine1  3.045 -4.72502 10.3784
HEad  2.19961 8.35259 -8.96877
LeftShoulder1  3.09482 -6.03455 -26.3326
LeftArm  -5.53088 0.837841 -52.7519
LeftForeArm  -146.702 -70.5689 -157.525
LeftHand  -0.857673 0.332575 19.7166
RightShoulder  3.60938 6.89628 28.7636
RightArm  4.46071 -27.4488 37.9951
RightForeArm  19.5422 37.4911 7.39714
RightHand  -1.48411 8.45312 -12.7471
LeftUpLeg  -17.4343 5.96981 6.66464
LeftLeg  74.8564 -1.29486 -4.31039
LeftFoot  18.4003 1.70653 -6.85055
LeftToes  -8.4584e-011 5.90861e-011 8.40072e-012
416
root  -20.2882 36.5091 14.5498 -11.0645 16.2441 -5.36745
RightUpLeg  0.385321 -10.3669 -7.08664
RightLeg  41.1277 -3.82994 -3.708
RightFoot  -21.0069 1.48865 21.0319
RightToes  -5.82094e-011 -1.98785e-016 -5.10186e-018
Spine  17.8679 -3.49907 -0.959929
Spine1  3.44893 -5.49819 13.5433
HEad  1.89413 8.09701 -8.98204
LeftShoulder1  3.22406 -6.29991 -26.7931
LeftArm  -6.55312 1.85578 -53.9529
LeftForeArm  -146.268 -70.7535 -157.337
LeftHand  -0.956208 -0.745919 18.1148
RightShoulder  3.41612 6.26676 29.034
RightArm  5.79655 -24.2225 35.795
RightForeArm  17.9673 35.3387 6.89371
RightHand  -1.66304 8.39485 -14.2756
LeftUpLeg  -18.879 3.88139 8.93592
LeftLeg  79.7721 -0.618407 -2.30483
LeftFoot  17.9559 1.1386 -4.7749
LeftToes  -8.4584e-011 5.90861e-011 8.40072e-012
417
root  -20.9121 35.6126 13.0991 -9.95699 15.0754 -9.41115
RightUpLeg  -5.63836 -14.5867 -2.42242
RightLeg  43.4971 -1.95797 -2.29685
RightFoot  -26.5409 1.83502 14.7802
RightToes  -5.82094e-011 -1.98785e-016 -5.10186e-018
Spine  16.6779 -4.16674 3.90844
Spine1  3.69264 -5.31125 13.9771
HEad  0.149438 8.60882 -9.09763
LeftShoulder1  3.00489 -5.47371 -27.4048
LeftArm  -6.62887 1.81946 -54.2419
LeftForeArm  -146.362 -71.3893 -156.438
LeftHand  -0.931039 -0.254323 19.2434
RightShoulder  3.56901 6.50241 29.7184
RightArm  6.0267 -20.4656 33.3358
RightForeArm  17.2988 33.6818 6.49892
RightHand  -2.00773 7.78091 -17.9171
LeftUpLeg  -20.774 3.54803 11.9144
LeftLeg  83.4122 -0.289846 -0.400301
LeftFoot  16.7315 0.815848 -3.68736
LeftToes  -8.4584e-011 5.90861e-011 8.40072e-012
418
root  -21.319 35.192 11.5398 -8.65355 11.5158 -12.4528
RightUpLeg  -13.0113 -13.7783 2.57516
RightLeg  46.6031 -1.42447 -1.9478
RightFoot  -24.2765 1.33216 13.175
RightToes  -5.82094e-011 -1.98785e-016 -5.10186e-018
Spine  14.7779 -4.47968 9.62481
Spine1  5.99274 -4.47268 10.838
HEad  -0.817555 9.71095 -9.60243
LeftShoulder1  2.82951 -4.81653 -27.9419
LeftArm  -6.95256 1.79663 -54.261
LeftForeArm  -147.695 -73.5154 -153.153
LeftHand  -0.807086 0.898331 20.7722
RightShoulder  4.02343 7.34505 31.1992
RightArm  4.9354 -15.3795 31.3068
RightForeArm  16.7971 31.2521 5.9063
RightHand  -2.38232 7.06441 -22.2178
LeftUpLeg  -20.4839 4.07068 13.4711
LeftLeg  83.1287 -0.380118 -0.945046
LeftFoot  14.2052 0.924467 -4.46846
LeftToes  -8.4584e-011 5.90861e-011 8.40072e-012
